<svg width="233" height="231" viewBox="0 0 233 231" fill="none" xmlns="http://www.w3.org/2000/svg">
<rect x="5" y="5" width="223" height="221" rx="110.5" fill="#2D74DA"/>
<rect x="5" y="5" width="223" height="221" rx="110.5" stroke="#4CC9B0" stroke-width="10"/>
<g clip-path="url(#clip0_61_821)">
<rect width="52" height="30" transform="matrix(0 -1 1 0 10 141.5)" fill="#2D74DA"/>
<path d="M16.16 126.356C16.528 126.276 16.904 126.268 17.288 126.332C17.656 126.38 17.992 126.452 18.296 126.548C18.92 126.74 19.616 126.964 20.384 127.22C21.152 127.476 21.92 127.732 22.688 127.988C23.456 128.244 24.184 128.492 24.872 128.732C25.544 128.972 26.104 129.172 26.552 129.332C26.968 129.492 27.44 129.66 27.968 129.836C28.496 130.012 29.016 130.228 29.528 130.484C30.024 130.724 30.48 131.012 30.896 131.348C31.312 131.668 31.616 132.06 31.808 132.524C32 132.988 32.048 133.412 31.952 133.796C31.84 134.18 31.648 134.524 31.376 134.828C31.088 135.132 30.736 135.412 30.32 135.668C29.888 135.908 29.448 136.124 29 136.316C28.552 136.508 28.12 136.684 27.704 136.844C27.272 137.004 26.904 137.148 26.6 137.276C25.512 137.772 24.36 138.22 23.144 138.62C21.928 139.02 20.768 139.428 19.664 139.844C19.344 139.956 18.96 140.084 18.512 140.228C18.048 140.372 17.592 140.468 17.144 140.516C16.68 140.548 16.264 140.492 15.896 140.348C15.512 140.204 15.248 139.9 15.104 139.436C15.072 139.34 15.048 139.244 15.032 139.148C15 139.036 14.976 138.932 14.96 138.836C14.96 138.724 14.968 138.62 14.984 138.524C15 138.428 15.04 138.324 15.104 138.212C15.136 138.132 15.176 138.052 15.224 137.972C15.256 137.892 15.304 137.82 15.368 137.756C15.448 137.692 15.528 137.636 15.608 137.588C15.688 137.524 15.768 137.46 15.848 137.396C15.96 137.348 16.064 137.308 16.16 137.276C16.24 137.228 16.32 137.188 16.4 137.156C16.512 137.124 16.616 137.084 16.712 137.036C16.792 136.988 16.872 136.948 16.952 136.916L17.36 136.772L27.224 133.316L17.384 129.908L16.976 129.74C16.896 129.708 16.816 129.676 16.736 129.644C16.64 129.612 16.536 129.58 16.424 129.548C16.344 129.516 16.264 129.484 16.184 129.452C16.088 129.404 15.992 129.348 15.896 129.284C15.816 129.236 15.736 129.188 15.656 129.14C15.56 129.076 15.472 129.012 15.392 128.948C15.328 128.9 15.272 128.844 15.224 128.78C15.176 128.7 15.136 128.628 15.104 128.564C15.04 128.436 15 128.324 14.984 128.228C14.968 128.116 14.96 128.02 14.96 127.94C14.976 127.844 15 127.748 15.032 127.652C15.048 127.54 15.072 127.436 15.104 127.34C15.184 127.036 15.32 126.812 15.512 126.668C15.704 126.508 15.92 126.404 16.16 126.356ZM22.904 121.344C23.352 121.344 23.856 121.344 24.416 121.344C24.976 121.328 25.56 121.32 26.168 121.32C26.76 121.32 27.352 121.32 27.944 121.32C28.52 121.32 29.056 121.328 29.552 121.344C29.792 121.36 30.056 121.384 30.344 121.416C30.616 121.448 30.872 121.512 31.112 121.608C31.352 121.704 31.552 121.856 31.712 122.064C31.856 122.256 31.92 122.52 31.904 122.856C31.872 123.352 31.656 123.712 31.256 123.936C30.856 124.144 30.296 124.264 29.576 124.296C29.208 124.296 28.784 124.304 28.304 124.32C27.824 124.32 27.336 124.328 26.84 124.344C26.344 124.344 25.864 124.344 25.4 124.344C24.92 124.344 24.488 124.344 24.104 124.344C23.88 124.344 23.608 124.352 23.288 124.368C22.968 124.368 22.64 124.36 22.304 124.344C21.968 124.328 21.648 124.288 21.344 124.224C21.024 124.16 20.76 124.056 20.552 123.912C20.424 123.8 20.328 123.64 20.264 123.432C20.184 123.224 20.144 123.008 20.144 122.784C20.144 122.544 20.184 122.32 20.264 122.112C20.344 121.888 20.456 121.728 20.6 121.632C20.696 121.568 20.832 121.52 21.008 121.488C21.184 121.456 21.384 121.432 21.608 121.416C21.816 121.384 22.04 121.368 22.28 121.368C22.504 121.352 22.712 121.344 22.904 121.344ZM18.056 122.256C18.184 122.752 18.136 123.168 17.912 123.504C17.672 123.824 17.32 124.024 16.856 124.104C16.52 124.168 16.224 124.144 15.968 124.032C15.712 123.92 15.52 123.752 15.392 123.528C15.248 123.304 15.184 123.048 15.2 122.76C15.216 122.472 15.328 122.184 15.536 121.896C15.728 121.624 15.952 121.432 16.208 121.32C16.464 121.192 16.712 121.152 16.952 121.2C17.192 121.232 17.416 121.336 17.624 121.512C17.816 121.688 17.96 121.936 18.056 122.256ZM21.416 108.987C21.72 108.859 22.056 108.851 22.424 108.963C22.792 109.059 23.032 109.243 23.144 109.515C23.208 109.659 23.264 109.851 23.312 110.091C23.344 110.331 23.376 110.595 23.408 110.883C23.44 111.155 23.464 111.427 23.48 111.699C23.496 111.971 23.504 112.203 23.504 112.395C23.984 112.379 24.48 112.363 24.992 112.347C25.488 112.331 25.976 112.315 26.456 112.299C26.936 112.283 27.4 112.275 27.848 112.275C28.28 112.275 28.672 112.283 29.024 112.299C29.264 112.299 29.544 112.299 29.864 112.299C30.168 112.299 30.464 112.323 30.752 112.371C31.04 112.403 31.296 112.459 31.52 112.539C31.728 112.619 31.864 112.739 31.928 112.899C32.136 113.395 32.192 113.851 32.096 114.267C32.016 114.667 31.848 114.955 31.592 115.131C31.384 115.259 31.144 115.355 30.872 115.419C30.584 115.483 30.296 115.531 30.008 115.563C29.704 115.579 29.416 115.587 29.144 115.587C28.856 115.571 28.608 115.563 28.4 115.563C27.728 115.547 26.968 115.539 26.12 115.539C25.256 115.523 24.392 115.515 23.528 115.515V115.875C23.528 116.067 23.528 116.315 23.528 116.619C23.512 116.907 23.488 117.203 23.456 117.507C23.408 117.795 23.352 118.067 23.288 118.323C23.208 118.579 23.096 118.763 22.952 118.875C22.744 119.051 22.52 119.163 22.28 119.211C22.04 119.243 21.816 119.227 21.608 119.163C21.384 119.083 21.192 118.963 21.032 118.803C20.856 118.643 20.744 118.459 20.696 118.251C20.616 117.963 20.576 117.555 20.576 117.027C20.56 116.499 20.56 116.003 20.576 115.539C20.416 115.555 20.264 115.563 20.12 115.563C19.96 115.563 19.808 115.571 19.664 115.587C19.472 115.603 19.232 115.611 18.944 115.611C18.64 115.611 18.344 115.595 18.056 115.563C17.752 115.515 17.472 115.443 17.216 115.347C16.944 115.251 16.736 115.115 16.592 114.939C16.4 114.699 16.296 114.459 16.28 114.219C16.248 113.963 16.28 113.731 16.376 113.523C16.472 113.299 16.616 113.115 16.808 112.971C16.984 112.811 17.184 112.699 17.408 112.635C17.6 112.587 17.832 112.547 18.104 112.515C18.36 112.483 18.632 112.467 18.92 112.467C19.208 112.451 19.496 112.443 19.784 112.443C20.072 112.443 20.336 112.443 20.576 112.443V112.203C20.576 111.963 20.568 111.683 20.552 111.363C20.536 111.043 20.544 110.731 20.576 110.427C20.608 110.107 20.688 109.819 20.816 109.563C20.928 109.307 21.128 109.115 21.416 108.987ZM21.896 105.177C21.656 104.697 21.488 104.193 21.392 103.665C21.28 103.137 21.256 102.617 21.32 102.105C21.368 101.577 21.504 101.073 21.728 100.593C21.936 100.113 22.24 99.6653 22.64 99.2493C23.056 98.8333 23.512 98.5133 24.008 98.2893C24.504 98.0653 25.056 97.9053 25.664 97.8093C26.08 97.7453 26.464 97.6413 26.816 97.4973C27.168 97.3533 27.52 97.2013 27.872 97.0413C28.224 96.8653 28.576 96.7053 28.928 96.5613C29.28 96.4013 29.648 96.2733 30.032 96.1773C30.4 96.0973 30.76 96.1293 31.112 96.2733C31.448 96.4013 31.656 96.6733 31.736 97.0893C31.784 97.3293 31.768 97.5613 31.688 97.7853C31.592 97.9933 31.464 98.1853 31.304 98.3613C31.128 98.5373 30.944 98.6973 30.752 98.8413C30.544 98.9693 30.352 99.0893 30.176 99.2013C30.656 99.5693 31.032 99.9693 31.304 100.401C31.56 100.833 31.728 101.353 31.808 101.961C31.872 102.473 31.888 102.961 31.856 103.425C31.824 103.889 31.736 104.385 31.592 104.913C31.416 105.601 31.112 106.169 30.68 106.617C30.232 107.049 29.72 107.385 29.144 107.625C28.552 107.849 27.92 107.969 27.248 107.985C26.576 108.001 25.912 107.921 25.256 107.745C24.392 107.521 23.688 107.185 23.144 106.737C22.6 106.289 22.184 105.769 21.896 105.177ZM24.704 104.577C24.928 104.801 25.192 104.977 25.496 105.105C25.8 105.233 26.12 105.313 26.456 105.345C26.792 105.361 27.128 105.329 27.464 105.249C27.8 105.169 28.096 105.041 28.352 104.865C28.576 104.705 28.768 104.433 28.928 104.049C29.072 103.665 29.16 103.265 29.192 102.849C29.224 102.369 29.096 101.953 28.808 101.601C28.52 101.233 28.16 100.961 27.728 100.785C27.28 100.593 26.808 100.505 26.312 100.521C25.8 100.537 25.336 100.673 24.92 100.929C24.616 101.121 24.392 101.377 24.248 101.697C24.104 102.001 24.032 102.329 24.032 102.681C24.016 103.033 24.072 103.385 24.2 103.737C24.312 104.073 24.48 104.353 24.704 104.577ZM30.08 90.9886C30.16 91.0046 30.24 91.0206 30.32 91.0366C30.384 91.0366 30.456 91.0366 30.536 91.0366L31.04 91.1806C31.104 91.2126 31.144 91.2366 31.16 91.2526L31.304 91.3246C31.48 91.4046 31.624 91.5486 31.736 91.7566C31.928 92.1406 31.976 92.5486 31.88 92.9806C31.848 93.2526 31.768 93.4686 31.64 93.6286C31.528 93.7886 31.392 93.9006 31.232 93.9646C31.072 94.0286 30.912 94.0766 30.752 94.1086C30.592 94.1566 30.448 94.1806 30.32 94.1806H16.88C16.768 94.1806 16.672 94.1806 16.592 94.1806C16.496 94.1646 16.408 94.1486 16.328 94.1326C16.216 94.1166 16.12 94.1006 16.04 94.0846C15.96 94.0526 15.872 94.0206 15.776 93.9886C15.616 93.9406 15.488 93.8526 15.392 93.7246C15.248 93.5326 15.168 93.3486 15.152 93.1726C15.12 93.0606 15.104 92.9566 15.104 92.8606C15.088 92.7646 15.08 92.6526 15.08 92.5246C15.08 92.3006 15.144 92.0446 15.272 91.7566C15.4 91.5326 15.576 91.3726 15.8 91.2766C16.12 91.1166 16.416 91.0366 16.688 91.0366C16.848 91.0206 17.088 91.0126 17.408 91.0126C17.728 90.9966 17.968 90.9886 18.128 90.9886H18.224C18.736 90.9566 19.232 90.9406 19.712 90.9406C20.176 90.9406 20.688 90.9486 21.248 90.9646C21.792 90.9646 22.32 90.9726 22.832 90.9886C23.328 90.9886 23.824 90.9886 24.32 90.9886H29.36C29.424 90.9886 29.488 90.9886 29.552 90.9886C29.6 90.9726 29.656 90.9646 29.72 90.9646C29.88 90.9646 30 90.9726 30.08 90.9886Z" fill="#F8FAFC"/>
</g>
<rect width="133" height="211" transform="translate(50 10)" fill="#2D74DA"/>
<g clip-path="url(#clip1_61_821)">
<rect width="52" height="30" transform="translate(90.5 26)" fill="#2D74DA"/>
<path d="M105.644 32.16C105.724 32.528 105.732 32.904 105.668 33.288C105.62 33.656 105.548 33.992 105.452 34.296C105.26 34.92 105.036 35.616 104.78 36.384C104.524 37.152 104.268 37.92 104.012 38.688C103.756 39.456 103.508 40.184 103.268 40.872C103.028 41.544 102.828 42.104 102.668 42.552C102.508 42.968 102.34 43.44 102.164 43.968C101.988 44.496 101.772 45.016 101.516 45.528C101.276 46.024 100.988 46.48 100.652 46.896C100.332 47.312 99.94 47.616 99.476 47.808C99.012 48 98.588 48.048 98.204 47.952C97.82 47.84 97.476 47.648 97.172 47.376C96.868 47.088 96.588 46.736 96.332 46.32C96.092 45.888 95.876 45.448 95.684 45C95.492 44.552 95.316 44.12 95.156 43.704C94.996 43.272 94.852 42.904 94.724 42.6C94.228 41.512 93.78 40.36 93.38 39.144C92.98 37.928 92.572 36.768 92.156 35.664C92.044 35.344 91.916 34.96 91.772 34.512C91.628 34.048 91.532 33.592 91.484 33.144C91.452 32.68 91.508 32.264 91.652 31.896C91.796 31.512 92.1 31.248 92.564 31.104C92.66 31.072 92.756 31.048 92.852 31.032C92.964 31 93.068 30.976 93.164 30.96C93.276 30.96 93.38 30.968 93.476 30.984C93.572 31 93.676 31.04 93.788 31.104C93.868 31.136 93.948 31.176 94.028 31.224C94.108 31.256 94.18 31.304 94.244 31.368C94.308 31.448 94.364 31.528 94.412 31.608C94.476 31.688 94.54 31.768 94.604 31.848C94.652 31.96 94.692 32.064 94.724 32.16C94.772 32.24 94.812 32.32 94.844 32.4C94.876 32.512 94.916 32.616 94.964 32.712C95.012 32.792 95.052 32.872 95.084 32.952L95.228 33.36L98.684 43.224L102.092 33.384L102.26 32.976C102.292 32.896 102.324 32.816 102.356 32.736C102.388 32.64 102.42 32.536 102.452 32.424C102.484 32.344 102.516 32.264 102.548 32.184C102.596 32.088 102.652 31.992 102.716 31.896C102.764 31.816 102.812 31.736 102.86 31.656C102.924 31.56 102.988 31.472 103.052 31.392C103.1 31.328 103.156 31.272 103.22 31.224C103.3 31.176 103.372 31.136 103.436 31.104C103.564 31.04 103.676 31 103.772 30.984C103.884 30.968 103.98 30.96 104.06 30.96C104.156 30.976 104.252 31 104.348 31.032C104.46 31.048 104.564 31.072 104.66 31.104C104.964 31.184 105.188 31.32 105.332 31.512C105.492 31.704 105.596 31.92 105.644 32.16ZM110.656 38.904C110.656 39.352 110.656 39.856 110.656 40.416C110.672 40.976 110.68 41.56 110.68 42.168C110.68 42.76 110.68 43.352 110.68 43.944C110.68 44.52 110.672 45.056 110.656 45.552C110.64 45.792 110.616 46.056 110.584 46.344C110.552 46.616 110.488 46.872 110.392 47.112C110.296 47.352 110.144 47.552 109.936 47.712C109.744 47.856 109.48 47.92 109.144 47.904C108.648 47.872 108.288 47.656 108.064 47.256C107.856 46.856 107.736 46.296 107.704 45.576C107.704 45.208 107.696 44.784 107.68 44.304C107.68 43.824 107.672 43.336 107.656 42.84C107.656 42.344 107.656 41.864 107.656 41.4C107.656 40.92 107.656 40.488 107.656 40.104C107.656 39.88 107.648 39.608 107.632 39.288C107.632 38.968 107.64 38.64 107.656 38.304C107.672 37.968 107.712 37.648 107.776 37.344C107.84 37.024 107.944 36.76 108.088 36.552C108.2 36.424 108.36 36.328 108.568 36.264C108.776 36.184 108.992 36.144 109.216 36.144C109.456 36.144 109.68 36.184 109.888 36.264C110.112 36.344 110.272 36.456 110.368 36.6C110.432 36.696 110.48 36.832 110.512 37.008C110.544 37.184 110.568 37.384 110.584 37.608C110.616 37.816 110.632 38.04 110.632 38.28C110.648 38.504 110.656 38.712 110.656 38.904ZM109.744 34.056C109.248 34.184 108.832 34.136 108.496 33.912C108.176 33.672 107.976 33.32 107.896 32.856C107.832 32.52 107.856 32.224 107.968 31.968C108.08 31.712 108.248 31.52 108.472 31.392C108.696 31.248 108.952 31.184 109.24 31.2C109.528 31.216 109.816 31.328 110.104 31.536C110.376 31.728 110.568 31.952 110.68 32.208C110.808 32.464 110.848 32.712 110.8 32.952C110.768 33.192 110.664 33.416 110.488 33.624C110.312 33.816 110.064 33.96 109.744 34.056ZM123.013 37.416C123.141 37.72 123.149 38.056 123.037 38.424C122.941 38.792 122.757 39.032 122.485 39.144C122.341 39.208 122.149 39.264 121.909 39.312C121.669 39.344 121.405 39.376 121.117 39.408C120.845 39.44 120.573 39.464 120.301 39.48C120.029 39.496 119.797 39.504 119.605 39.504C119.621 39.984 119.637 40.48 119.653 40.992C119.669 41.488 119.685 41.976 119.701 42.456C119.717 42.936 119.725 43.4 119.725 43.848C119.725 44.28 119.717 44.672 119.701 45.024C119.701 45.264 119.701 45.544 119.701 45.864C119.701 46.168 119.677 46.464 119.629 46.752C119.597 47.04 119.541 47.296 119.461 47.52C119.381 47.728 119.261 47.864 119.101 47.928C118.605 48.136 118.149 48.192 117.733 48.096C117.333 48.016 117.045 47.848 116.869 47.592C116.741 47.384 116.645 47.144 116.581 46.872C116.517 46.584 116.469 46.296 116.437 46.008C116.421 45.704 116.413 45.416 116.413 45.144C116.429 44.856 116.437 44.608 116.437 44.4C116.453 43.728 116.461 42.968 116.461 42.12C116.477 41.256 116.485 40.392 116.485 39.528H116.125C115.933 39.528 115.685 39.528 115.381 39.528C115.093 39.512 114.797 39.488 114.493 39.456C114.205 39.408 113.933 39.352 113.677 39.288C113.421 39.208 113.237 39.096 113.125 38.952C112.949 38.744 112.837 38.52 112.789 38.28C112.757 38.04 112.773 37.816 112.837 37.608C112.917 37.384 113.037 37.192 113.197 37.032C113.357 36.856 113.541 36.744 113.749 36.696C114.037 36.616 114.445 36.576 114.973 36.576C115.501 36.56 115.997 36.56 116.461 36.576C116.445 36.416 116.437 36.264 116.437 36.12C116.437 35.96 116.429 35.808 116.413 35.664C116.397 35.472 116.389 35.232 116.389 34.944C116.389 34.64 116.405 34.344 116.437 34.056C116.485 33.752 116.557 33.472 116.653 33.216C116.749 32.944 116.885 32.736 117.061 32.592C117.301 32.4 117.541 32.296 117.781 32.28C118.037 32.248 118.269 32.28 118.477 32.376C118.701 32.472 118.885 32.616 119.029 32.808C119.189 32.984 119.301 33.184 119.365 33.408C119.413 33.6 119.453 33.832 119.485 34.104C119.517 34.36 119.533 34.632 119.533 34.92C119.549 35.208 119.557 35.496 119.557 35.784C119.557 36.072 119.557 36.336 119.557 36.576H119.797C120.037 36.576 120.317 36.568 120.637 36.552C120.957 36.536 121.269 36.544 121.573 36.576C121.893 36.608 122.181 36.688 122.437 36.816C122.693 36.928 122.885 37.128 123.013 37.416ZM126.823 37.896C127.303 37.656 127.807 37.488 128.335 37.392C128.863 37.28 129.383 37.256 129.895 37.32C130.423 37.368 130.927 37.504 131.407 37.728C131.887 37.936 132.335 38.24 132.751 38.64C133.167 39.056 133.487 39.512 133.711 40.008C133.935 40.504 134.095 41.056 134.191 41.664C134.255 42.08 134.359 42.464 134.503 42.816C134.647 43.168 134.799 43.52 134.959 43.872C135.135 44.224 135.295 44.576 135.439 44.928C135.599 45.28 135.727 45.648 135.823 46.032C135.903 46.4 135.871 46.76 135.727 47.112C135.599 47.448 135.327 47.656 134.911 47.736C134.671 47.784 134.439 47.768 134.215 47.688C134.007 47.592 133.815 47.464 133.639 47.304C133.463 47.128 133.303 46.944 133.159 46.752C133.031 46.544 132.911 46.352 132.799 46.176C132.431 46.656 132.031 47.032 131.599 47.304C131.167 47.56 130.647 47.728 130.039 47.808C129.527 47.872 129.039 47.888 128.575 47.856C128.111 47.824 127.615 47.736 127.087 47.592C126.399 47.416 125.831 47.112 125.383 46.68C124.951 46.232 124.615 45.72 124.375 45.144C124.151 44.552 124.031 43.92 124.015 43.248C123.999 42.576 124.079 41.912 124.255 41.256C124.479 40.392 124.815 39.688 125.263 39.144C125.711 38.6 126.231 38.184 126.823 37.896ZM127.423 40.704C127.199 40.928 127.023 41.192 126.895 41.496C126.767 41.8 126.687 42.12 126.655 42.456C126.639 42.792 126.671 43.128 126.751 43.464C126.831 43.8 126.959 44.096 127.135 44.352C127.295 44.576 127.567 44.768 127.951 44.928C128.335 45.072 128.735 45.16 129.151 45.192C129.631 45.224 130.047 45.096 130.399 44.808C130.767 44.52 131.039 44.16 131.215 43.728C131.407 43.28 131.495 42.808 131.479 42.312C131.463 41.8 131.327 41.336 131.071 40.92C130.879 40.616 130.623 40.392 130.303 40.248C129.999 40.104 129.671 40.032 129.319 40.032C128.967 40.016 128.615 40.072 128.263 40.2C127.927 40.312 127.647 40.48 127.423 40.704ZM141.011 46.08C140.995 46.16 140.979 46.24 140.963 46.32C140.963 46.384 140.963 46.456 140.963 46.536L140.819 47.04C140.787 47.104 140.763 47.144 140.747 47.16L140.675 47.304C140.595 47.48 140.451 47.624 140.243 47.736C139.859 47.928 139.451 47.976 139.019 47.88C138.747 47.848 138.531 47.768 138.371 47.64C138.211 47.528 138.099 47.392 138.035 47.232C137.971 47.072 137.923 46.912 137.891 46.752C137.843 46.592 137.819 46.448 137.819 46.32V32.88C137.819 32.768 137.819 32.672 137.819 32.592C137.835 32.496 137.851 32.408 137.867 32.328C137.883 32.216 137.899 32.12 137.915 32.04C137.947 31.96 137.979 31.872 138.011 31.776C138.059 31.616 138.147 31.488 138.275 31.392C138.467 31.248 138.651 31.168 138.827 31.152C138.939 31.12 139.043 31.104 139.139 31.104C139.235 31.088 139.347 31.08 139.475 31.08C139.699 31.08 139.955 31.144 140.243 31.272C140.467 31.4 140.627 31.576 140.723 31.8C140.883 32.12 140.963 32.416 140.963 32.688C140.979 32.848 140.987 33.088 140.987 33.408C141.003 33.728 141.011 33.968 141.011 34.128V34.224C141.043 34.736 141.059 35.232 141.059 35.712C141.059 36.176 141.051 36.688 141.035 37.248C141.035 37.792 141.027 38.32 141.011 38.832C141.011 39.328 141.011 39.824 141.011 40.32V45.36C141.011 45.424 141.011 45.488 141.011 45.552C141.027 45.6 141.035 45.656 141.035 45.72C141.035 45.88 141.027 46 141.011 46.08Z" fill="#F8FAFC"/>
</g>
<path d="M136.339 66C144.836 66 152.07 69.4303 158.042 76.2908C164.014 83.1513 167 91.4447 167 101.171C167 102.734 166.94 104.276 166.82 105.795C166.699 107.315 166.439 108.813 166.038 110.289H133.454L125.277 97.0026C124.877 96.3079 124.315 95.7434 123.594 95.3092C122.873 94.875 122.111 94.6579 121.31 94.6579C120.267 94.6579 119.326 95.0053 118.484 95.7C117.642 96.3947 117.061 97.2632 116.74 98.3053L110.248 119.408L106.039 112.634C105.638 111.939 105.077 111.375 104.356 110.941C103.635 110.507 102.873 110.289 102.071 110.289H66.9619C66.6413 108.813 66.4008 107.337 66.2405 105.861C66.0802 104.384 66 102.864 66 101.301C66 91.4882 68.9659 83.1513 74.8976 76.2908C80.8294 69.4303 88.0437 66 96.5405 66C100.228 66 103.775 66.7164 107.182 68.1493C110.588 69.5822 113.694 71.6447 116.5 74.3368C119.225 71.6447 122.291 69.5822 125.698 68.1493C129.105 66.7164 132.652 66 136.339 66ZM116.5 165C114.656 165 112.933 164.631 111.33 163.893C109.727 163.155 108.324 162.134 107.121 160.832L74.8976 125.791C74.1762 125.009 73.5149 124.206 72.9137 123.381C72.3125 122.556 71.7313 121.666 71.1702 120.711H99.4262L107.602 133.997C108.003 134.692 108.564 135.257 109.286 135.691C110.007 136.125 110.769 136.342 111.57 136.342C112.612 136.342 113.574 135.995 114.456 135.3C115.338 134.605 115.939 133.737 116.26 132.695L122.752 111.592L126.84 118.366C127.321 119.061 127.923 119.625 128.644 120.059C129.365 120.493 130.127 120.711 130.929 120.711H161.83C161.269 121.666 160.688 122.534 160.086 123.316C159.485 124.097 158.824 124.879 158.102 125.661L125.758 160.832C124.556 162.134 123.153 163.155 121.55 163.893C119.947 164.631 118.263 165 116.5 165Z" fill="#F8FAFC"/>
<g clip-path="url(#clip2_61_821)">
<rect width="52" height="30" transform="translate(90.5 175)" fill="#2D74DA"/>
<path d="M104.204 192.968C104.412 193.432 104.42 193.888 104.228 194.336C104.036 194.768 103.732 195.168 103.316 195.536C102.9 195.904 102.42 196.224 101.876 196.496C101.348 196.768 100.844 196.96 100.364 197.072C99.836 197.184 99.276 197.232 98.684 197.216C98.108 197.216 97.524 197.144 96.932 197C96.356 196.872 95.788 196.68 95.228 196.424C94.684 196.152 94.18 195.824 93.716 195.44C93.156 194.976 92.716 194.424 92.396 193.784C92.092 193.128 91.868 192.432 91.724 191.696C91.58 190.96 91.5 190.224 91.484 189.488C91.484 188.736 91.508 188.032 91.556 187.376C91.604 186.784 91.724 186.168 91.916 185.528C92.108 184.888 92.372 184.264 92.708 183.656C93.06 183.032 93.476 182.456 93.956 181.928C94.452 181.4 95.028 180.952 95.684 180.584C96.18 180.296 96.732 180.104 97.34 180.008C97.964 179.896 98.588 179.872 99.212 179.936C99.852 179.984 100.452 180.12 101.012 180.344C101.588 180.552 102.076 180.84 102.476 181.208C102.732 181.432 102.996 181.744 103.268 182.144C103.556 182.544 103.764 182.952 103.892 183.368C104.02 183.784 104.02 184.176 103.892 184.544C103.78 184.896 103.46 185.136 102.932 185.264C102.708 185.328 102.508 185.344 102.332 185.312C102.156 185.264 101.996 185.192 101.852 185.096C101.708 184.984 101.572 184.856 101.444 184.712C101.316 184.568 101.196 184.424 101.084 184.28C100.7 183.816 100.252 183.504 99.74 183.344C99.228 183.168 98.716 183.128 98.204 183.224C97.708 183.304 97.236 183.512 96.788 183.848C96.356 184.168 96.02 184.584 95.78 185.096C95.524 185.64 95.316 186.24 95.156 186.896C95.012 187.536 94.932 188.192 94.916 188.864C94.9 189.52 94.956 190.16 95.084 190.784C95.228 191.408 95.468 191.96 95.804 192.44C96.06 192.824 96.372 193.136 96.74 193.376C97.124 193.616 97.532 193.784 97.964 193.88C98.396 193.976 98.828 193.992 99.26 193.928C99.708 193.864 100.14 193.72 100.556 193.496C100.684 193.432 100.82 193.344 100.964 193.232C101.124 193.104 101.284 192.976 101.444 192.848C101.604 192.72 101.764 192.6 101.924 192.488C102.1 192.376 102.284 192.296 102.476 192.248C102.764 192.152 103.076 192.16 103.412 192.272C103.764 192.384 104.028 192.616 104.204 192.968ZM109.104 186.896C109.584 186.656 110.088 186.488 110.616 186.392C111.144 186.28 111.664 186.256 112.176 186.32C112.704 186.368 113.208 186.504 113.688 186.728C114.168 186.936 114.616 187.24 115.032 187.64C115.448 188.056 115.768 188.512 115.992 189.008C116.216 189.504 116.376 190.056 116.472 190.664C116.536 191.08 116.64 191.464 116.784 191.816C116.928 192.168 117.08 192.52 117.24 192.872C117.416 193.224 117.576 193.576 117.72 193.928C117.88 194.28 118.008 194.648 118.104 195.032C118.184 195.4 118.152 195.76 118.008 196.112C117.88 196.448 117.608 196.656 117.192 196.736C116.952 196.784 116.72 196.768 116.496 196.688C116.288 196.592 116.096 196.464 115.92 196.304C115.744 196.128 115.584 195.944 115.44 195.752C115.312 195.544 115.192 195.352 115.08 195.176C114.712 195.656 114.312 196.032 113.88 196.304C113.448 196.56 112.928 196.728 112.32 196.808C111.808 196.872 111.32 196.888 110.856 196.856C110.392 196.824 109.896 196.736 109.368 196.592C108.68 196.416 108.112 196.112 107.664 195.68C107.232 195.232 106.896 194.72 106.656 194.144C106.432 193.552 106.312 192.92 106.296 192.248C106.28 191.576 106.36 190.912 106.536 190.256C106.76 189.392 107.096 188.688 107.544 188.144C107.992 187.6 108.512 187.184 109.104 186.896ZM109.704 189.704C109.48 189.928 109.304 190.192 109.176 190.496C109.048 190.8 108.968 191.12 108.936 191.456C108.92 191.792 108.952 192.128 109.032 192.464C109.112 192.8 109.24 193.096 109.416 193.352C109.576 193.576 109.848 193.768 110.232 193.928C110.616 194.072 111.016 194.16 111.432 194.192C111.912 194.224 112.328 194.096 112.68 193.808C113.048 193.52 113.32 193.16 113.496 192.728C113.688 192.28 113.776 191.808 113.76 191.312C113.744 190.8 113.608 190.336 113.352 189.92C113.16 189.616 112.904 189.392 112.584 189.248C112.28 189.104 111.952 189.032 111.6 189.032C111.248 189.016 110.896 189.072 110.544 189.2C110.208 189.312 109.928 189.48 109.704 189.704ZM120.125 188.504C120.125 188.312 120.125 188.096 120.125 187.856C120.125 187.6 120.133 187.344 120.149 187.088C120.165 186.816 120.189 186.56 120.221 186.32C120.269 186.064 120.333 185.84 120.413 185.648C120.541 185.36 120.741 185.168 121.013 185.072C121.285 184.96 121.581 184.912 121.901 184.928C122.237 184.928 122.501 184.984 122.693 185.096C122.885 185.208 123.029 185.36 123.125 185.552C123.221 185.728 123.277 185.936 123.293 186.176C123.325 186.4 123.341 186.64 123.341 186.896C123.485 186.64 123.677 186.432 123.917 186.272C124.173 186.112 124.429 185.984 124.685 185.888C124.941 185.792 125.173 185.728 125.381 185.696C125.589 185.648 125.709 185.624 125.741 185.624C126.141 185.592 126.501 185.584 126.821 185.6C127.157 185.616 127.525 185.688 127.925 185.816C128.181 185.912 128.445 186.048 128.717 186.224C128.989 186.384 129.229 186.576 129.437 186.8C129.645 187.024 129.781 187.272 129.845 187.544C129.925 187.8 129.893 188.072 129.749 188.36C129.525 188.76 129.277 188.96 129.005 188.96C128.733 188.944 128.437 188.896 128.117 188.816C127.941 188.784 127.733 188.712 127.493 188.6C127.253 188.488 127.045 188.416 126.869 188.384C126.325 188.304 125.845 188.344 125.429 188.504C125.013 188.664 124.653 188.856 124.349 189.08C123.997 189.352 123.693 189.664 123.437 190.016V193.472C123.437 193.904 123.429 194.352 123.413 194.816C123.413 195.28 123.349 195.704 123.221 196.088C123.109 196.456 122.909 196.76 122.621 197C122.349 197.224 121.949 197.32 121.421 197.288C121.133 197.272 120.877 197.136 120.653 196.88C120.429 196.608 120.293 196.344 120.245 196.088C120.213 195.848 120.189 195.56 120.173 195.224C120.157 194.888 120.141 194.536 120.125 194.168C120.125 193.8 120.125 193.432 120.125 193.064C120.125 192.68 120.125 192.328 120.125 192.008V188.504ZM138.694 193.712C138.886 193.664 139.078 193.632 139.27 193.616C139.478 193.6 139.662 193.624 139.822 193.688C139.998 193.752 140.142 193.864 140.254 194.024C140.366 194.168 140.422 194.376 140.422 194.648C140.422 194.84 140.374 195.024 140.278 195.2C140.182 195.376 140.062 195.536 139.918 195.68C139.774 195.824 139.614 195.952 139.438 196.064C139.262 196.16 139.094 196.24 138.934 196.304C138.47 196.512 137.934 196.672 137.326 196.784C136.734 196.896 136.118 196.936 135.478 196.904C134.614 196.872 133.782 196.704 132.982 196.4C132.198 196.08 131.582 195.56 131.134 194.84C130.718 194.136 130.47 193.352 130.39 192.488C130.31 191.624 130.35 190.808 130.51 190.04C130.686 189.112 130.982 188.36 131.398 187.784C131.83 187.192 132.342 186.72 132.934 186.368C133.654 185.952 134.462 185.736 135.358 185.72C136.254 185.704 137.11 185.88 137.926 186.248C138.47 186.488 138.958 186.816 139.39 187.232C139.822 187.632 140.15 188.12 140.374 188.696C140.438 188.84 140.486 189.016 140.518 189.224C140.566 189.432 140.598 189.656 140.614 189.896C140.63 190.12 140.63 190.344 140.614 190.568C140.598 190.792 140.558 190.992 140.494 191.168C140.398 191.456 140.278 191.68 140.134 191.84C139.99 192 139.806 192.12 139.582 192.2C139.358 192.28 139.086 192.336 138.766 192.368C138.462 192.384 138.094 192.4 137.662 192.416C137.278 192.432 136.918 192.44 136.582 192.44C136.246 192.44 135.902 192.44 135.55 192.44C135.198 192.424 134.83 192.416 134.446 192.416C134.078 192.4 133.662 192.384 133.198 192.368C133.15 192.688 133.19 192.968 133.318 193.208C133.462 193.432 133.654 193.624 133.894 193.784C134.134 193.928 134.406 194.04 134.71 194.12C135.014 194.2 135.31 194.248 135.598 194.264C136.142 194.296 136.662 194.256 137.158 194.144C137.654 194.016 138.166 193.872 138.694 193.712ZM137.662 189.056C137.358 188.704 137.038 188.448 136.702 188.288C136.446 188.176 136.174 188.128 135.886 188.144C135.614 188.144 135.35 188.184 135.094 188.264C134.63 188.376 134.238 188.616 133.918 188.984C133.886 189.016 133.83 189.096 133.75 189.224C133.67 189.336 133.59 189.456 133.51 189.584C133.446 189.712 133.398 189.832 133.366 189.944C133.334 190.056 133.35 190.112 133.414 190.112H138.118C138.102 189.888 138.062 189.704 137.998 189.56C137.934 189.4 137.822 189.232 137.662 189.056Z" fill="#F8FAFC"/>
</g>
<g clip-path="url(#clip3_61_821)">
<rect width="52" height="30" transform="matrix(0 -1 1 0 193 141.5)" fill="#2D74DA"/>
<path d="M210.968 127.796C211.432 127.588 211.888 127.58 212.336 127.772C212.768 127.964 213.168 128.268 213.536 128.684C213.904 129.1 214.224 129.58 214.496 130.124C214.768 130.652 214.96 131.156 215.072 131.636C215.184 132.164 215.232 132.724 215.216 133.316C215.216 133.892 215.144 134.476 215 135.068C214.872 135.644 214.68 136.212 214.424 136.772C214.152 137.316 213.824 137.82 213.44 138.284C212.976 138.844 212.424 139.284 211.784 139.604C211.128 139.908 210.432 140.132 209.696 140.276C208.96 140.42 208.224 140.5 207.488 140.516C206.736 140.516 206.032 140.492 205.376 140.444C204.784 140.396 204.168 140.276 203.528 140.084C202.888 139.892 202.264 139.628 201.656 139.292C201.032 138.94 200.456 138.524 199.928 138.044C199.4 137.548 198.952 136.972 198.584 136.316C198.296 135.82 198.104 135.268 198.008 134.66C197.896 134.036 197.872 133.412 197.936 132.788C197.984 132.148 198.12 131.548 198.344 130.988C198.552 130.412 198.84 129.924 199.208 129.524C199.432 129.268 199.744 129.004 200.144 128.732C200.544 128.444 200.952 128.236 201.368 128.108C201.784 127.98 202.176 127.98 202.544 128.108C202.896 128.22 203.136 128.54 203.264 129.068C203.328 129.292 203.344 129.492 203.312 129.668C203.264 129.844 203.192 130.004 203.096 130.148C202.984 130.292 202.856 130.428 202.712 130.556C202.568 130.684 202.424 130.804 202.28 130.916C201.816 131.3 201.504 131.748 201.344 132.26C201.168 132.772 201.128 133.284 201.224 133.796C201.304 134.292 201.512 134.764 201.848 135.212C202.168 135.644 202.584 135.98 203.096 136.22C203.64 136.476 204.24 136.684 204.896 136.844C205.536 136.988 206.192 137.068 206.864 137.084C207.52 137.1 208.16 137.044 208.784 136.916C209.408 136.772 209.96 136.532 210.44 136.196C210.824 135.94 211.136 135.628 211.376 135.26C211.616 134.876 211.784 134.468 211.88 134.036C211.976 133.604 211.992 133.172 211.928 132.74C211.864 132.292 211.72 131.86 211.496 131.444C211.432 131.316 211.344 131.18 211.232 131.036C211.104 130.876 210.976 130.716 210.848 130.556C210.72 130.396 210.6 130.236 210.488 130.076C210.376 129.9 210.296 129.716 210.248 129.524C210.152 129.236 210.16 128.924 210.272 128.588C210.384 128.236 210.616 127.972 210.968 127.796ZM204.896 122.896C204.656 122.416 204.488 121.912 204.392 121.384C204.28 120.856 204.256 120.336 204.32 119.824C204.368 119.296 204.504 118.792 204.728 118.312C204.936 117.832 205.24 117.384 205.64 116.968C206.056 116.552 206.512 116.232 207.008 116.008C207.504 115.784 208.056 115.624 208.664 115.528C209.08 115.464 209.464 115.36 209.816 115.216C210.168 115.072 210.52 114.92 210.872 114.76C211.224 114.584 211.576 114.424 211.928 114.28C212.28 114.12 212.648 113.992 213.032 113.896C213.4 113.816 213.76 113.848 214.112 113.992C214.448 114.12 214.656 114.392 214.736 114.808C214.784 115.048 214.768 115.28 214.688 115.504C214.592 115.712 214.464 115.904 214.304 116.08C214.128 116.256 213.944 116.416 213.752 116.56C213.544 116.688 213.352 116.808 213.176 116.92C213.656 117.288 214.032 117.688 214.304 118.12C214.56 118.552 214.728 119.072 214.808 119.68C214.872 120.192 214.888 120.68 214.856 121.144C214.824 121.608 214.736 122.104 214.592 122.632C214.416 123.32 214.112 123.888 213.68 124.336C213.232 124.768 212.72 125.104 212.144 125.344C211.552 125.568 210.92 125.688 210.248 125.704C209.576 125.72 208.912 125.64 208.256 125.464C207.392 125.24 206.688 124.904 206.144 124.456C205.6 124.008 205.184 123.488 204.896 122.896ZM207.704 122.296C207.928 122.52 208.192 122.696 208.496 122.824C208.8 122.952 209.12 123.032 209.456 123.064C209.792 123.08 210.128 123.048 210.464 122.968C210.8 122.888 211.096 122.76 211.352 122.584C211.576 122.424 211.768 122.152 211.928 121.768C212.072 121.384 212.16 120.984 212.192 120.568C212.224 120.088 212.096 119.672 211.808 119.32C211.52 118.952 211.16 118.68 210.728 118.504C210.28 118.312 209.808 118.224 209.312 118.24C208.8 118.256 208.336 118.392 207.92 118.648C207.616 118.84 207.392 119.096 207.248 119.416C207.104 119.72 207.032 120.048 207.032 120.4C207.016 120.752 207.072 121.104 207.2 121.456C207.312 121.792 207.48 122.072 207.704 122.296ZM206.504 111.875C206.312 111.875 206.096 111.875 205.856 111.875C205.6 111.875 205.344 111.867 205.088 111.851C204.816 111.835 204.56 111.811 204.32 111.779C204.064 111.731 203.84 111.667 203.648 111.587C203.36 111.459 203.168 111.259 203.072 110.987C202.96 110.715 202.912 110.419 202.928 110.099C202.928 109.763 202.984 109.499 203.096 109.307C203.208 109.115 203.36 108.971 203.552 108.875C203.728 108.779 203.936 108.723 204.176 108.707C204.4 108.675 204.64 108.659 204.896 108.659C204.64 108.515 204.432 108.323 204.272 108.083C204.112 107.827 203.984 107.571 203.888 107.315C203.792 107.059 203.728 106.827 203.696 106.619C203.648 106.411 203.624 106.291 203.624 106.259C203.592 105.859 203.584 105.499 203.6 105.179C203.616 104.843 203.688 104.475 203.816 104.075C203.912 103.819 204.048 103.555 204.224 103.283C204.384 103.011 204.576 102.771 204.8 102.563C205.024 102.355 205.272 102.219 205.544 102.155C205.8 102.075 206.072 102.107 206.36 102.251C206.76 102.475 206.96 102.723 206.96 102.995C206.944 103.267 206.896 103.563 206.816 103.883C206.784 104.059 206.712 104.267 206.6 104.507C206.488 104.747 206.416 104.955 206.384 105.131C206.304 105.675 206.344 106.155 206.504 106.571C206.664 106.987 206.856 107.347 207.08 107.651C207.352 108.003 207.664 108.307 208.016 108.563H211.472C211.904 108.563 212.352 108.571 212.816 108.587C213.28 108.587 213.704 108.651 214.088 108.779C214.456 108.891 214.76 109.091 215 109.379C215.224 109.651 215.32 110.051 215.288 110.579C215.272 110.867 215.136 111.123 214.88 111.347C214.608 111.571 214.344 111.707 214.088 111.755C213.848 111.787 213.56 111.811 213.224 111.827C212.888 111.843 212.536 111.859 212.168 111.875C211.8 111.875 211.432 111.875 211.064 111.875C210.68 111.875 210.328 111.875 210.008 111.875H206.504ZM211.712 93.3063C211.664 93.1143 211.632 92.9223 211.616 92.7303C211.6 92.5223 211.624 92.3383 211.688 92.1783C211.752 92.0023 211.864 91.8583 212.024 91.7463C212.168 91.6343 212.376 91.5783 212.648 91.5783C212.84 91.5783 213.024 91.6263 213.2 91.7223C213.376 91.8183 213.536 91.9383 213.68 92.0823C213.824 92.2263 213.952 92.3863 214.064 92.5623C214.16 92.7383 214.24 92.9063 214.304 93.0663C214.512 93.5303 214.672 94.0663 214.784 94.6743C214.896 95.2663 214.936 95.8823 214.904 96.5223C214.872 97.3863 214.704 98.2183 214.4 99.0183C214.08 99.8023 213.56 100.418 212.84 100.866C212.136 101.282 211.352 101.53 210.488 101.61C209.624 101.69 208.808 101.65 208.04 101.49C207.112 101.314 206.36 101.018 205.784 100.602C205.192 100.17 204.72 99.6583 204.368 99.0663C203.952 98.3463 203.736 97.5383 203.72 96.6423C203.704 95.7463 203.88 94.8903 204.248 94.0743C204.488 93.5303 204.816 93.0423 205.232 92.6103C205.632 92.1783 206.12 91.8503 206.696 91.6263C206.84 91.5623 207.016 91.5143 207.224 91.4823C207.432 91.4343 207.656 91.4023 207.896 91.3863C208.12 91.3703 208.344 91.3703 208.568 91.3863C208.792 91.4023 208.992 91.4423 209.168 91.5063C209.456 91.6023 209.68 91.7223 209.84 91.8663C210 92.0103 210.12 92.1943 210.2 92.4183C210.28 92.6423 210.336 92.9143 210.368 93.2343C210.384 93.5383 210.4 93.9063 210.416 94.3383C210.432 94.7223 210.44 95.0823 210.44 95.4183C210.44 95.7543 210.44 96.0983 210.44 96.4503C210.424 96.8023 210.416 97.1703 210.416 97.5543C210.4 97.9223 210.384 98.3383 210.368 98.8023C210.688 98.8503 210.968 98.8103 211.208 98.6823C211.432 98.5383 211.624 98.3463 211.784 98.1063C211.928 97.8663 212.04 97.5943 212.12 97.2903C212.2 96.9863 212.248 96.6903 212.264 96.4023C212.296 95.8583 212.256 95.3383 212.144 94.8423C212.016 94.3463 211.872 93.8343 211.712 93.3063ZM207.056 94.3383C206.704 94.6423 206.448 94.9623 206.288 95.2983C206.176 95.5543 206.128 95.8263 206.144 96.1143C206.144 96.3863 206.184 96.6503 206.264 96.9063C206.376 97.3703 206.616 97.7623 206.984 98.0823C207.016 98.1143 207.096 98.1703 207.224 98.2503C207.336 98.3303 207.456 98.4103 207.584 98.4903C207.712 98.5543 207.832 98.6023 207.944 98.6343C208.056 98.6663 208.112 98.6503 208.112 98.5863V93.8823C207.888 93.8983 207.704 93.9383 207.56 94.0023C207.4 94.0663 207.232 94.1783 207.056 94.3383Z" fill="#F8FAFC"/>
</g>
<defs>
<clipPath id="clip0_61_821">
<rect width="52" height="30" fill="white" transform="matrix(0 -1 1 0 10 141.5)"/>
</clipPath>
<clipPath id="clip1_61_821">
<rect width="52" height="30" fill="white" transform="translate(90.5 26)"/>
</clipPath>
<clipPath id="clip2_61_821">
<rect width="52" height="30" fill="white" transform="translate(90.5 175)"/>
</clipPath>
<clipPath id="clip3_61_821">
<rect width="52" height="30" fill="white" transform="matrix(0 -1 1 0 193 141.5)"/>
</clipPath>
</defs>
</svg>
