<svg width="32" height="32" viewBox="0 0 32 32" fill="none" xmlns="http://www.w3.org/2000/svg">
<path d="M28.9911 32C25.4374 32 21.9263 31.2284 18.4579 29.6853C14.9896 28.1421 11.8187 25.9425 8.94536 23.0863C6.072 20.2301 3.86277 17.0656 2.31766 13.5927C0.772554 10.1198 0 6.60413 0 3.04569C0 2.17557 0.286523 1.45042 0.859568 0.870254C1.43288 0.290084 2.14933 0 3.00889 0H9.55527C10.5582 0 11.3715 0.243655 11.9949 0.730964C12.6184 1.21827 13.0385 1.92217 13.2554 2.84264L14.2719 7.67513C14.4346 8.51438 14.4278 9.23181 14.2516 9.82741C14.0754 10.423 13.7162 10.9509 13.1741 11.4112L8.98602 15.066C9.41974 15.7699 9.928 16.4805 10.5108 17.198C11.0936 17.9154 11.7781 18.6531 12.5642 19.4112C13.269 20.1151 13.9466 20.731 14.5972 21.2589C15.2478 21.7868 15.8983 22.2403 16.5489 22.6193L20.6557 18.6396C21.1978 18.1252 21.8009 17.78 22.4651 17.6041C23.1292 17.4281 23.8543 17.4213 24.6404 17.5838L29.1537 18.599C30.1025 18.8697 30.8141 19.2893 31.2884 19.8579C31.7628 20.4264 32 21.1709 32 22.0914V28.9543C32 29.8244 31.7086 30.5496 31.1258 31.1297C30.543 31.7099 29.8314 32 28.9911 32ZM6.50572 10.4772L9.14867 8.16244L8.53875 5.11675H5.20457C5.2859 6.03722 5.42767 6.94335 5.62989 7.83513C5.83183 8.7269 6.12378 9.60758 6.50572 10.4772ZM21.2249 25.2183C22.1194 25.5973 23.0411 25.9086 23.9898 26.1523C24.9386 26.3959 25.9009 26.5854 26.8767 26.7208V23.3503L23.8679 22.6599L21.2249 25.2183Z" fill="#F8FAFC"/>
</svg>
