<svg width="32" height="32" viewBox="0 0 32 32" fill="none" xmlns="http://www.w3.org/2000/svg">
<path d="M13.8824 24.9412H18.1176V18.1176H24.9412V13.8824H18.1176V7.05882H13.8824V13.8824H7.05882V18.1176H13.8824V24.9412ZM3.40282 32C2.45192 32 1.64706 31.6706 0.988235 31.0118C0.329412 30.3529 0 29.5481 0 28.5972V3.40282C0 2.45192 0.329412 1.64706 0.988235 0.988235C1.64706 0.329412 2.45192 0 3.40282 0H28.5972C29.5481 0 30.3529 0.329412 31.0118 0.988235C31.6706 1.64706 32 2.45192 32 3.40282V28.5972C32 29.5481 31.6706 30.3529 31.0118 31.0118C30.3529 31.6706 29.5481 32 28.5972 32H3.40282ZM3.40282 29.1765H28.5972C28.7421 29.1765 28.8748 29.1161 28.9953 28.9953C29.1161 28.8748 29.1765 28.7421 29.1765 28.5972V3.40282C29.1765 3.25788 29.1161 3.12518 28.9953 3.0047C28.8748 2.88392 28.7421 2.82353 28.5972 2.82353H3.40282C3.25788 2.82353 3.12518 2.88392 3.00471 3.0047C2.88392 3.12518 2.82353 3.25788 2.82353 3.40282V28.5972C2.82353 28.7421 2.88392 28.8748 3.00471 28.9953C3.12518 29.1161 3.25788 29.1765 3.40282 29.1765Z" fill="#E3E3E3"/>
</svg>
